# xmcd
#
# Track frame offsets: 
#        150
#        4735
#        20561
#        27899
#        32675
#        44407
#        50700
#        64732
#        71953
#        84650
#        97908
#        108571
#        124798
#        141547
#        151310
#        159861
#        165667
#        176503
#        187729
#        203315
#        224110
#        256040
#        260412
#        275357
#        288045
#        307266
#
# Disc length: 4495 seconds
#
# Revision: 1
# Processed by: cddbd v1.5.2PL0 Copyright (c) Steve Scherf et al.
# Submitted via: ExactAudioCopyFreeDBPlugin 1.0
#
DISCID=6f118d1a
DTITLE=Johnny Cash - At Folsom Prison (Legacy Edition) Show One - CD 1
DTITLE=Various Artist /
DYEAR=1968
DGENRE=Country
TTITLE0=Opening Announcements from Hugh Cherry (Previously Unissued)
TTITLE1=Blue Suede Shoes (Carl Perkins) (Previously Unissued)
TTITLE2=This Ole House (The Statler Brothers) (Previously Unissued)
TTITLE3=Announcements and Johnny Cash intro from Hugh Cherry (Previous
TTITLE3=ly Unissued)
TTITLE4=Folsom Prison Blues
TTITLE5=Busted
TTITLE6=Dark As A Dungeon
TTITLE7=I Still Miss Someone
TTITLE8=Cocaine Blues
TTITLE9=25 Minutes To Go
TTITLE10=I'm Here To Get My Baby Out Of Jail (Previously Unissued)
TTITLE11=Orange Blossom Special
TTITLE12=The Long Black Veil
TTITLE13=Send A Picture Of Mother
TTITLE14=The Wall
TTITLE15=Dirty Old Egg-Sucking Dog
TTITLE16=Flushed From The Bathroom Of Your Heart
TTITLE17=Joe Bean
TTITLE18=Jackson (with June Carter)
TTITLE19=I Got A Woman (with June Carter) (Previously Unissued)
TTITLE20=The Legend Of John Henry's Hammer
TTITLE21=June's Poem (Previously Unissued)
TTITLE22=Green, Green Grass Of Home
TTITLE23=Greystone Chapel
TTITLE24=Closing Announcements
TTITLE25=Data Track
EXTD=
EXTT0=
EXTT1=
EXTT2=
EXTT3=
EXTT4=
EXTT5=
EXTT6=
EXTT7=
EXTT8=
EXTT9=
EXTT10=
EXTT11=
EXTT12=
EXTT13=
EXTT14=
EXTT15=
EXTT16=
EXTT17=
EXTT18=
EXTT19=
EXTT20=
EXTT21=
EXTT22=
EXTT23=
EXTT24=
EXTT25=
PLAYORDER=
